<?xml version="1.0" standalone="no"?>
<!DOCTYPE svg PUBLIC "-//W3C//DTD SVG 20010904//EN"
 "http://www.w3.org/TR/2001/REC-SVG-20010904/DTD/svg10.dtd">
<svg version="1.0" xmlns="http://www.w3.org/2000/svg"
 width="512.000000pt" height="512.000000pt" viewBox="0 0 512.000000 512.000000"
 preserveAspectRatio="xMidYMid meet">
<metadata>
Created by potrace 1.11, written by Peter Selinger 2001-2013
</metadata>
<g transform="translate(0.000000,512.000000) scale(0.100000,-0.100000)"
fill="#000000" stroke="none">
<path d="M2260 5114 c-14 -2 -70 -11 -125 -20 -55 -8 -116 -19 -135 -24 -318
-80 -522 -160 -717 -281 -34 -22 -65 -39 -67 -39 -3 0 -49 -30 -103 -66 -539
-366 -945 -981 -1064 -1614 -5 -30 -19 -120 -29 -200 -15 -111 -16 -146 -7
-152 7 -4 431 -8 943 -8 730 0 933 3 945 13 8 6 23 37 33 67 31 93 76 162 160
245 57 57 100 90 146 111 135 65 193 77 332 72 183 -7 305 -58 427 -178 84
-83 131 -156 164 -251 11 -35 26 -67 31 -71 17 -12 1914 -10 1921 2 14 23 -45
394 -86 535 -16 55 -68 212 -80 241 -164 402 -404 743 -705 1005 -28 24 -63
54 -77 66 -44 37 -175 133 -182 133 -4 0 -21 11 -39 25 -18 14 -36 25 -39 25
-4 0 -30 15 -60 34 -76 49 -190 107 -282 145 -44 17 -89 36 -100 40 -75 32
-300 93 -455 123 -90 18 -151 21 -415 23 -170 2 -321 1 -335 -1z"/>
<path d="M28 2403 c-22 -5 -22 -17 -3 -158 17 -133 30 -209 45 -267 6 -23 16
-61 22 -83 11 -39 52 -167 83 -255 28 -77 129 -281 183 -368 29 -46 52 -86 52
-89 0 -7 128 -181 148 -202 7 -8 37 -44 67 -80 71 -89 261 -272 363 -350 167
-128 414 -273 582 -341 30 -12 64 -26 75 -31 86 -36 362 -109 480 -127 39 -6
104 -16 145 -23 98 -16 483 -16 580 0 41 6 107 17 145 23 123 18 388 89 480
128 11 4 54 22 95 38 70 29 222 104 245 122 6 4 33 20 60 35 60 34 203 128
231 152 11 10 44 38 74 63 104 84 216 193 302 295 90 105 94 109 151 187 79
107 152 228 208 342 28 56 54 109 60 119 53 96 140 380 179 582 15 84 38 279
33 285 -9 9 -1890 11 -1915 1 -16 -6 -29 -23 -38 -53 -29 -86 -74 -154 -159
-238 -89 -89 -148 -125 -251 -155 -30 -9 -65 -21 -78 -26 -13 -5 -67 -9 -120
-9 -191 0 -381 88 -499 229 -48 59 -133 210 -133 238 0 6 -10 13 -22 17 -26 7
-1844 6 -1870 -1z"/>
</g>
</svg>
